HIERARCHY
ROOT hip
{
	OFFSET 0.000000 0.000000 0.000000 
	CHANNELS 6 Xposition Yposition Zposition Xrotation Zrotation Yrotation
	JOINT abdomen
	{
		OFFSET 0.000000 3.402643 0.000000 
		CHANNELS 3 Xrotation Zrotation Yrotation
		JOINT chest
		{
			OFFSET 0.000000 8.438565 -0.680529 
			CHANNELS 3 Xrotation Zrotation Yrotation
			JOINT neck
			{
				OFFSET 0.000000 10.207942 -0.272212 
				CHANNELS 3 Xrotation Zrotation Yrotation
				JOINT head
				{
					OFFSET 0.000000 3.130431 0.000000 
					CHANNELS 3 Xrotation Zrotation Yrotation
					End Site
					{
						OFFSET 0.000000 3.130435 0.000000 
					}
				}
			}
			JOINT lCollar
			{
				OFFSET 3.470700 6.669187 -0.816635 
				CHANNELS 3 Yrotation Zrotation Xrotation
				JOINT lShldr
				{
					OFFSET 3.198488 0.000000 0.000000 
					CHANNELS 3 Zrotation Yrotation Xrotation
					JOINT lForeArm
					{
						OFFSET 10.139888 0.000000 0.000000 
						CHANNELS 3 Yrotation Zrotation Xrotation
						JOINT lHand
						{
							OFFSET 8.370511 0.000000 0.000000 
							CHANNELS 3 Zrotation Yrotation Xrotation
							End Site
							{
								OFFSET 4.083176 0.000000 0.000000 
							}
						}
					}
				}
			}
			JOINT rCollar
			{
				OFFSET -3.470700 6.669187 -0.816635 
				CHANNELS 3 Yrotation Zrotation Xrotation
				JOINT rShldr
				{
					OFFSET -3.198488 0.000000 0.000000 
					CHANNELS 3 Zrotation Yrotation Xrotation
					JOINT rForeArm
					{
						OFFSET -10.139888 0.000000 0.000000 
						CHANNELS 3 Yrotation Zrotation Xrotation
						JOINT rHand
						{
							OFFSET -8.370511 0.000000 0.000000 
							CHANNELS 3 Zrotation Yrotation Xrotation
							End Site
							{
								OFFSET -4.083176 0.000000 0.000000 
							}
						}
					}
				}
			}
		}
	}
	JOINT lThigh
	{
		OFFSET 5.308129 -1.633274 1.361059 
		CHANNELS 3 Xrotation Zrotation Yrotation
		JOINT lShin
		{
			OFFSET -2.041588 -20.007561 0.000000 
			CHANNELS 3 Xrotation Zrotation Yrotation
			JOINT lFoot
			{
				OFFSET 0.000000 -19.190928 -1.224953 
				CHANNELS 3 Xrotation Yrotation Zrotation
				End Site
				{
					OFFSET 0.000000 -2.449906 4.627600 
				}
			}
		}
	}
	JOINT rThigh
	{
		OFFSET -5.308129 -1.633274 1.361059 
		CHANNELS 3 Xrotation Zrotation Yrotation
		JOINT rShin
		{
			OFFSET 2.041588 -20.007561 0.000000 
			CHANNELS 3 Xrotation Zrotation Yrotation
			JOINT rFoot
			{
				OFFSET 0.000000 -19.190928 -1.224953 
				CHANNELS 3 Xrotation Yrotation Zrotation
				End Site
				{
					OFFSET 0.000000 -2.449906 4.627600 
				}
			}
		}
	}
}
MOTION
Frames: 10
Frame Time: 0.033333
-63.750977 49.956051 73.428017 -0.639116 6.689041 70.580353 0.000000 0.000000 0.000000 6.357507 -3.183467 -3.773012 8.315706 -0.495699 -8.911790 26.889597 12.166677 -5.058044 -1.824419 -3.904164 5.855682 9.283092 14.829809 -12.570326 -10.966299 -0.931834 2.487883 23.259575 3.762198 -6.144950 -2.645463 -7.289856 6.405778 25.193100 -28.936251 -20.246401 11.304792 -0.030193 2.432971 -39.061287 -27.172953 -21.105021 7.624152 8.289696 6.093113 3.688755 -2.702349 31.031145 7.751922 0.342123 4.960658 10.613528 -16.542160 -14.768436 0.851039 0.361515 -20.228895 6.019157 -0.180432 -3.068324 
-63.955975 49.932396 73.975937 -0.531906 7.509446 69.296310 0.000000 0.000000 0.000000 6.598825 -2.638678 -3.361907 8.464026 -0.354557 -8.178095 27.655420 10.657514 -4.704893 -1.496686 -3.599826 6.241714 7.062788 14.964565 -10.823951 -9.618374 -1.535282 2.523660 22.816021 3.688051 -6.510563 -2.522814 -5.337326 6.739554 24.872370 -28.828848 -19.852417 11.922653 0.170139 2.447414 -38.705929 -27.839252 -21.730272 8.855623 8.407085 6.442268 2.723153 -2.336753 31.801832 8.595400 0.375415 5.055946 11.664153 -15.941916 -14.013322 -0.543806 -0.089057 -19.988903 6.245837 -0.201319 -3.041656 
-64.104469 50.004364 74.510780 -0.945759 7.577105 69.222076 0.000000 0.000000 0.000000 6.281333 -1.456054 -3.480761 9.188794 0.366952 -8.117988 27.521317 9.080716 -4.480720 -2.264465 -2.725623 5.643818 4.399629 15.139268 -10.083254 -8.403355 -1.864676 2.534564 22.256907 3.095585 -5.335273 -3.039337 -3.051790 6.143111 23.906420 -29.030722 -20.292383 12.937444 0.082077 2.447499 -39.046383 -28.564825 -21.985144 9.046067 9.360526 7.060965 2.313581 -2.012863 31.596548 9.217962 0.392424 4.805611 12.410268 -14.891335 -13.278697 -1.518050 0.145460 -18.840391 7.118142 -0.201393 -2.878535 
-64.382957 49.990654 75.065735 -0.905206 7.010852 69.880562 0.000000 0.000000 0.000000 5.508159 -0.641555 -3.987753 9.140403 0.224344 -7.910746 27.839962 9.627806 -4.101051 -2.990312 -3.158442 4.454512 3.795861 15.612711 -9.657142 -8.032890 -1.900826 2.533823 21.918531 2.549950 -4.744325 -3.800159 -2.539170 4.987446 23.822298 -29.114422 -21.016302 13.697582 -0.076808 2.441684 -39.191429 -28.312269 -22.665354 8.007135 10.087675 7.047146 2.371176 -1.825055 30.941481 9.653759 0.399474 4.657739 12.000082 -13.953850 -12.673003 -1.880561 0.057950 -20.319065 6.601313 -0.220431 -3.217295 
-64.698952 49.974682 75.561562 -0.875167 6.727738 70.591537 0.000000 0.000000 0.000000 5.097671 -0.136178 -4.357874 8.764301 0.142636 -7.969749 27.608837 10.706788 -4.012892 -3.531072 -3.502561 3.801113 3.873284 15.846131 -9.781433 -8.097753 -1.707494 2.527926 22.089384 2.739625 -5.308176 -4.267504 -2.301923 4.343287 23.895580 -29.528366 -21.578201 14.467275 -0.280926 2.432206 -38.733391 -28.302704 -22.808552 7.342777 10.662993 7.010888 2.225074 -1.712076 30.413794 10.324111 0.402777 4.585705 11.502705 -13.329865 -12.474136 -1.410104 0.097263 -21.317356 5.710265 -0.215536 -3.544445 
-64.894882 49.994560 76.078781 -1.771161 7.037685 71.677895 0.000000 0.000000 0.000000 5.215032 0.486260 -4.887178 8.800728 0.829114 -8.567566 26.797476 11.408756 -3.964024 -4.724230 -2.854323 4.092535 4.026096 16.900812 -9.679383 -8.726913 -1.361082 2.502609 21.895603 3.341592 -6.936074 -4.785995 -1.578164 4.631498 24.132969 -29.852615 -21.955975 14.632151 -0.403787 2.428174 -39.206509 -28.352798 -22.806843 7.614046 11.989511 7.764295 2.370143 -1.361274 28.554441 10.457290 0.390764 4.045116 12.654991 -11.777173 -11.790853 -1.927743 -0.028955 -22.400476 6.000472 -0.229953 -3.668065 
-65.101646 49.980839 76.449509 -2.176420 7.416582 72.317673 0.000000 0.000000 0.000000 5.410707 0.816658 -4.932286 8.495207 0.866879 -8.546109 27.105051 12.645287 -4.012500 -5.116848 -2.602017 4.358931 4.339262 16.524675 -10.367187 -8.958110 -1.174903 2.499201 22.075056 3.669083 -7.052220 -5.046110 -1.817605 4.887896 25.395405 -30.024582 -22.783905 14.200076 -0.661265 2.408285 -40.393436 -27.688690 -21.146030 7.681874 12.652948 8.026872 2.632613 -1.059898 26.952854 10.665256 0.354511 3.648369 13.177323 -11.012150 -11.617757 -1.855503 0.047210 -23.249979 5.651760 -0.233955 -3.858735 
-65.268517 49.997326 76.720825 -2.364271 7.552234 72.765396 0.000000 0.000000 0.000000 5.362182 1.020904 -4.874726 8.027934 1.314051 -9.114833 27.153540 11.795065 -4.336782 -5.413638 -2.276087 4.212727 4.580762 15.923468 -11.144819 -9.072863 -1.010859 2.483927 22.254841 2.997467 -6.477530 -5.111964 -1.534685 4.732404 25.775171 -30.354588 -23.226116 14.042544 -0.809591 2.398575 -40.163025 -27.649426 -20.822470 7.399136 13.150196 8.180680 3.020310 -1.027109 24.423374 10.487110 0.291250 2.987636 13.377830 -10.439072 -11.364937 -2.058376 0.009029 -24.107431 5.479716 -0.223229 -4.011562 
-65.365669 49.991413 76.866302 -2.610958 7.619128 72.827881 0.000000 0.000000 0.000000 5.206369 1.274021 -4.883733 8.165699 1.570025 -9.009236 27.272411 10.894961 -4.030941 -5.354747 -1.472804 4.061604 4.249449 15.708523 -11.396649 -9.678493 -1.028910 2.493918 22.279743 2.431273 -5.576155 -5.024929 -0.689294 4.554864 25.097885 -30.531031 -22.565989 13.995304 -0.612861 2.409163 -40.536053 -27.995182 -21.184757 7.388289 13.441621 8.180075 3.108283 -0.902047 22.125370 10.591859 0.213951 2.258740 13.458799 -9.995512 -11.104326 -2.103422 -0.018433 -24.489609 5.692356 -0.250073 -4.058097 
-65.421669 49.990280 76.931740 -2.906463 7.607504 72.662575 0.000000 0.000000 0.000000 5.070403 1.624481 -4.826368 8.182660 1.445994 -8.185859 27.136843 10.485157 -3.588592 -5.338693 -1.422284 3.861037 4.232563 15.891602 -11.820739 -10.270685 -0.800053 2.485698 22.162029 2.186963 -5.150851 -5.045097 -0.780165 4.376520 25.418997 -29.908047 -22.642509 14.171588 -0.549239 2.419499 -40.186634 -28.858223 -21.860079 7.362820 13.857404 8.472504 3.033170 -0.856495 22.413126 11.433093 0.234324 2.276704 13.393194 -9.577110 -10.714561 -2.190843 -0.105824 -24.617674 5.522696 -0.247796 -4.141980 
